<svg width="24" height="24" viewBox="0 0 24 24" fill="none" xmlns="http://www.w3.org/2000/svg">
<path d="M13.501 10.668C13.501 11.496 12.829 12.168 12.001 12.168C11.173 12.168 10.501 11.496 10.501 10.668C10.501 9.83997 11.173 9.16797 12.001 9.16797C12.829 9.16797 13.501 9.83997 13.501 10.668ZM17.001 9.16797C16.173 9.16797 15.501 9.83997 15.501 10.668C15.501 11.496 16.173 12.168 17.001 12.168C17.829 12.168 18.501 11.496 18.501 10.668C18.501 9.83997 17.829 9.16797 17.001 9.16797ZM7.001 9.16797C6.173 9.16797 5.501 9.83997 5.501 10.668C5.501 11.496 6.173 12.168 7.001 12.168C7.829 12.168 8.501 11.496 8.501 10.668C8.501 9.83997 7.829 9.16797 7.001 9.16797ZM24.001 4.16797V16.168C24.001 18.374 22.207 20.168 20.001 20.168H17.149L13.301 23.348C12.94 23.67 12.477 23.832 12.009 23.832C11.533 23.832 11.054 23.664 10.672 23.325L6.923 20.168H4C1.794 20.168 0 18.374 0 16.168V4.16797C0.000998735 1.96197 1.795 0.167969 4.001 0.167969H20.001C22.207 0.167969 24.001 1.96197 24.001 4.16797ZM22.001 4.16797C22.001 3.06497 21.104 2.16797 20.001 2.16797H4.001C2.898 2.16797 2.001 3.06497 2.001 4.16797V16.168C2.001 17.271 2.898 18.168 4.001 18.168H7.289C7.524 18.168 7.753 18.251 7.934 18.403L11.982 21.813L16.153 18.397C16.332 18.249 16.557 18.168 16.79 18.168H20.002C21.105 18.168 22.002 17.271 22.002 16.168L22.001 4.16797Z" fill="#171640"/>
</svg>
