<svg width="24" height="24" viewBox="0 0 24 24" fill="none" xmlns="http://www.w3.org/2000/svg">
<path d="M7 0H4C1.79086 0 -4.76837e-07 1.79086 0 4V7C0 9.20914 1.79086 11 4 11H7C9.20914 11 11 9.20914 11 7V4C11 1.79086 9.20914 0 7 0ZM9 7C9 8.10457 8.10457 9 7 9H4C2.89543 9 2 8.10457 2 7V4C2 2.89543 2.89543 2 4 2H7C8.10457 2 9 2.89543 9 4V7Z" fill="#171640"/>
<path d="M20 0H17C14.7909 0 13 1.79086 13 4V7C13 9.20914 14.7909 11 17 11H20C22.2091 11 24 9.20914 24 7V4C24 1.79086 22.2091 0 20 0ZM22 7C22 8.10457 21.1046 9 20 9H17C15.8954 9 15 8.10457 15 7V4C15 2.89543 15.8954 2 17 2H20C21.1046 2 22 2.89543 22 4V7Z" fill="#171640"/>
<path d="M7 13H4C1.79086 13 -4.76837e-07 14.7909 0 17V20C0 22.2091 1.79086 24 4 24H7C9.20914 24 11 22.2091 11 20V17C11 14.7909 9.20914 13 7 13ZM9 20C9 21.1046 8.10457 22 7 22H4C2.89543 22 2 21.1046 2 20V17C2 15.8954 2.89543 15 4 15H7C8.10457 15 9 15.8954 9 17V20Z" fill="#171640"/>
<path d="M20 13H17C14.7909 13 13 14.7909 13 17V20C13 22.2091 14.7909 24 17 24H20C22.2091 24 24 22.2091 24 20V17C24 14.7909 22.2091 13 20 13ZM22 20C22 21.1046 21.1046 22 20 22H17C15.8954 22 15 21.1046 15 20V17C15 15.8954 15.8954 15 17 15H20C21.1046 15 22 15.8954 22 17V20Z" fill="#171640"/>
</svg>
