<svg width="24" height="24" viewBox="0 0 24 24" fill="none" xmlns="http://www.w3.org/2000/svg">
<path d="M9.87798 18.122C11.0497 19.2945 12.9503 19.2945 14.122 18.122L17.333 14.911C17.6906 14.5155 17.675 13.9091 17.2976 13.5325C16.9202 13.1559 16.3137 13.1416 15.919 13.5L12.993 16.427L13 1C13 0.447715 12.5523 0 12 0C11.4477 0 11 0.447715 11 1L10.991 16.408L8.08098 13.5C7.69024 13.1095 7.05695 13.1098 6.66648 13.5005C6.27602 13.8912 6.27624 14.5245 6.66698 14.915L9.87798 18.122Z" fill="#171640"/>
<path d="M23 16C22.4477 16 22 16.4477 22 17V21C22 21.5523 21.5523 22 21 22H3C2.44772 22 2 21.5523 2 21V17C2 16.4477 1.55228 16 1 16C0.447715 16 -1.19209e-07 16.4477 0 17V21C0 22.6569 1.34315 24 3 24H21C22.6569 24 24 22.6569 24 21V17C24 16.4477 23.5523 16 23 16Z" fill="#171640"/>
</svg>
