<svg width="24" height="24" viewBox="0 0 24 24" fill="none" xmlns="http://www.w3.org/2000/svg">
<path d="M9.28805 13.067C6.97105 13.513 5.82305 16.093 5.32505 17.701C5.2298 18.005 5.28508 18.3362 5.47391 18.5928C5.66273 18.8493 5.96249 19.0006 6.28105 19H10.0001C10.844 19 11.6484 18.645 12.2168 18.022C12.785 17.3994 13.0651 16.5659 12.9881 15.726C12.8806 14.8681 12.4205 14.0937 11.7183 13.5891C11.0162 13.0845 10.1355 12.8953 9.28805 13.067Z" fill="#171640"/>
<path d="M23 8.979C22.4477 8.979 22 9.42672 22 9.979V15H18C16.3431 15 15 16.3431 15 18V22H5C3.34315 22 2 20.6569 2 19V5C2 3.34315 3.34315 2 5 2H16.042C16.5943 2 17.042 1.55228 17.042 1C17.042 0.447715 16.5943 0 16.042 0H5C2.23995 0.00330544 0.00330591 2.23995 0 5V19C0.00330687 21.7601 2.23995 23.9967 5 24H16.343C17.6696 24.0037 18.9425 23.4766 19.878 22.536L22.536 19.878C23.4766 18.9425 24.0037 17.6696 24 16.343L24 9.979C24 9.42671 23.5523 8.979 23 8.979ZM18.464 21.122C18.0607 21.5208 17.5534 21.798 17 21.922V18C17 17.4477 17.4477 17 18 17H21.925C21.801 17.5534 21.5238 18.0607 21.125 18.464L18.464 21.122Z" fill="#171640"/>
<path d="M14.5661 14.17C14.1619 14.17 13.7973 13.9264 13.6425 13.5528C13.4877 13.179 13.5732 12.7489 13.8591 12.463L21.7121 4.60995C21.8894 4.43305 21.989 4.19289 21.989 3.94245C21.989 3.69201 21.8894 3.45186 21.7121 3.27495C21.5315 3.08715 21.2784 2.98684 21.0181 2.99995C20.7582 3.0056 20.5125 3.11941 20.3401 3.31395L12.7401 11.721C12.3698 12.1307 11.7374 12.1628 11.3276 11.7925C10.9178 11.4221 10.8858 10.7898 11.2561 10.38L18.8561 1.97995C19.3947 1.37868 20.1563 1.02448 20.9631 0.999954C21.7711 0.98264 22.5515 1.29367 23.1261 1.86195C24.2739 3.01229 24.2739 4.87462 23.1261 6.02496L15.2731 13.878C15.0859 14.0658 14.8313 14.1709 14.5661 14.17Z" fill="#171640"/>
</svg>
