<svg width="24" height="24" viewBox="0 0 24 24" fill="none" xmlns="http://www.w3.org/2000/svg">
<path d="M22.831 9.17199L18.952 5.29299C18.5616 4.90236 17.9284 4.90236 17.5379 5.29288C17.1473 5.6834 17.1473 6.31657 17.5379 6.70709L21.417 10.586C21.5322 10.7035 21.6329 10.8345 21.717 10.976C21.702 10.976 21.69 10.968 21.675 10.968L5.99097 11C5.43868 11 4.99097 11.4477 4.99097 12C4.99097 12.5523 5.43868 13 5.99097 13L21.669 12.968C21.697 12.968 21.72 12.954 21.747 12.952C21.6583 13.1211 21.5458 13.2767 21.413 13.414L17.534 17.293C17.1433 17.6834 17.1433 18.3166 17.5339 18.7071C17.9244 19.0976 18.5575 19.0976 18.9481 18.7071L22.827 14.828C24.3885 13.266 24.3885 10.734 22.827 9.17199L22.831 9.17199Z" fill="#171640"/>
<path d="M7.00195 22H5.00195C3.3451 22 2.00195 20.6569 2.00195 19V5C2.00195 3.34315 3.3451 2 5.00195 2H7.00195C7.55424 2 8.00195 1.55228 8.00195 1C8.00195 0.447715 7.55424 0 7.00195 0H5.00195C2.2419 0.00330544 0.00525904 2.23995 0.00195312 5V19C0.00525999 21.7601 2.2419 23.9967 5.00195 24H7.00195C7.55424 24 8.00195 23.5523 8.00195 23C8.00195 22.4477 7.55424 22 7.00195 22Z" fill="#171640"/>
</svg>
