<svg width="695" height="551" viewBox="0 0 695 551" fill="none" xmlns="http://www.w3.org/2000/svg">
<path d="M332.32 4.05612L15.2023 186.776C-5.06837 198.455 -5.06837 227.709 15.208 239.388L332.365 422.113C341.746 427.515 353.3 427.515 362.681 422.107L679.793 239.393C700.069 227.709 700.069 198.455 679.793 186.776L362.635 4.05612C353.255 -1.35204 341.701 -1.35204 332.32 4.05612Z" fill="#303030"/>
<path d="M332.32 128.075L15.2023 310.795C-5.06837 322.473 -5.06837 351.727 15.208 363.406L332.365 546.132C341.746 551.534 353.3 551.534 362.681 546.126L679.793 363.412C700.069 351.727 700.069 322.473 679.793 310.795L362.635 128.075C353.255 122.667 341.701 122.667 332.32 128.075Z" fill="#303030"/>
<path d="M332.32 4.05612L15.2023 186.776C-5.06837 198.455 -5.06837 227.709 15.208 239.388L332.365 422.113C341.746 427.515 353.3 427.515 362.681 422.107L679.793 239.393C700.069 227.709 700.069 198.455 679.793 186.776L362.635 4.05612C353.255 -1.35204 341.701 -1.35204 332.32 4.05612Z" fill="#171640"/>
<path d="M332.32 128.075L15.2023 310.795C-5.06837 322.473 -5.06837 351.727 15.208 363.406L332.365 546.132C341.746 551.534 353.3 551.534 362.681 546.126L679.793 363.412C700.069 351.727 700.069 322.473 679.793 310.795L362.635 128.075C353.255 122.667 341.701 122.667 332.32 128.075Z" fill="#171640"/>
<path d="M338.392 186.901L148.159 296.511C135.997 303.519 135.997 321.066 148.159 328.074L347.511 442.923L546.836 328.074C558.997 321.066 558.997 303.519 546.836 296.511L356.58 186.901C350.95 183.66 344.021 183.66 338.392 186.901Z" fill="#D4F266"/>
<path d="M347.483 107.265L148.159 222.113C135.997 229.122 135.997 246.668 148.159 253.677L338.414 363.287C344.044 366.533 350.973 366.533 356.602 363.287L546.836 253.677C558.997 246.674 558.997 229.122 546.836 222.113L347.483 107.265Z" fill="white"/>
</svg>
