<svg width="18" height="24" viewBox="0 0 18 24" fill="none" xmlns="http://www.w3.org/2000/svg">
<path d="M18 24H16V18.957C15.9983 17.3246 14.6754 16.0017 13.043 16H4.957C3.32458 16.0017 2.00165 17.3246 2 18.957L2 24H0V18.957C0.00330544 16.2207 2.2207 14.0033 4.957 14L13.043 14C15.7793 14.0033 17.9967 16.2207 18 18.957V24Z" fill="#171640"/>
<path d="M9 12C5.68629 12 3 9.31371 3 6C3 2.68629 5.68629 0 9 0C12.3137 0 15 2.68629 15 6C14.9967 9.31234 12.3123 11.9967 9 12ZM9 2C6.79086 2 5 3.79086 5 6C5 8.20914 6.79086 10 9 10C11.2091 10 13 8.20914 13 6C13 3.79086 11.2091 2 9 2Z" fill="#171640"/>
</svg>
