<svg width="20" height="14" viewBox="0 0 20 14" fill="none" xmlns="http://www.w3.org/2000/svg">
<path d="M18.0791 4.25957L14.3198 0.500255C13.9414 0.121677 13.3278 0.121677 12.9493 0.500152C12.5708 0.878626 12.5708 1.49225 12.9493 1.87073L16.7087 5.62994C16.8204 5.74384 16.918 5.87074 16.9995 6.00791C16.9849 6.0079 16.9733 6.00015 16.9588 6.00015L1.7587 6.03116C1.22345 6.03116 0.789551 6.46506 0.789551 7.00031C0.789551 7.53555 1.22345 7.96945 1.7587 7.96945L16.9529 7.93844C16.9801 7.93844 17.0024 7.92487 17.0285 7.92293C16.9426 8.08687 16.8336 8.23765 16.7048 8.37068L12.9455 12.13C12.5669 12.5084 12.5669 13.122 12.9454 13.5005C13.3239 13.8789 13.9375 13.8789 14.316 13.5005L18.0752 9.74105C19.5886 8.22725 19.5886 5.77337 18.0752 4.25957L18.0791 4.25957Z" fill="#2A2A2A"/>
</svg>
